<svg width="31" height="31" viewBox="0 0 31 31" fill="none" xmlns="http://www.w3.org/2000/svg">
<path d="M15.47 7.79C14.09 7.79 12.81 8.14 11.63 8.84C10.45 9.52 9.51 10.45 8.81 11.63C8.11 12.81 7.76 14.1 7.76 15.5C7.76 16.88 8.1 18.16 8.78 19.34C9.48 20.52 10.42 21.46 11.6 22.16C12.8 22.84 14.09 23.18 15.47 23.18C16.87 23.18 18.16 22.84 19.34 22.16C20.52 21.46 21.45 20.52 22.13 19.34C22.83 18.16 23.18 16.88 23.18 15.5C23.18 14.1 22.83 12.81 22.13 11.63C21.45 10.45 20.52 9.52 19.34 8.84C18.16 8.14 16.87 7.79 15.47 7.79ZM15.47 20.24C14.61 20.24 13.81 20.03 13.07 19.61C12.35 19.17 11.77 18.59 11.33 17.87C10.91 17.13 10.7 16.33 10.7 15.47C10.7 14.61 10.91 13.82 11.33 13.1C11.77 12.38 12.35 11.81 13.07 11.39C13.81 10.95 14.61 10.73 15.47 10.73C16.33 10.73 17.12 10.95 17.84 11.39C18.58 11.81 19.16 12.38 19.58 13.1C20.02 13.82 20.24 14.61 20.24 15.47C20.24 16.33 20.02 17.13 19.58 17.87C19.16 18.59 18.58 19.17 17.84 19.61C17.12 20.03 16.33 20.24 15.47 20.24ZM21.77 0.649999H9.17C7.63 0.649999 6.2 1.04 4.88 1.82C3.58 2.58 2.55 3.62 1.79 4.94C1.03 6.24 0.65 7.66 0.65 9.2V21.77C0.65 23.31 1.03 24.73 1.79 26.03C2.55 27.35 3.58 28.39 4.88 29.15C6.2 29.93 7.63 30.32 9.17 30.32H21.77C23.31 30.32 24.75 29.93 26.09 29.15C27.37 28.39 28.39 27.37 29.15 26.09C29.93 24.75 30.32 23.31 30.32 21.77V9.2C30.32 7.66 29.93 6.22 29.15 4.88C28.39 3.6 27.37 2.58 26.09 1.82C24.75 1.04 23.31 0.649999 21.77 0.649999ZM27.38 21.77C27.38 22.79 27.13 23.73 26.63 24.59C26.13 25.45 25.45 26.13 24.59 26.63C23.73 27.13 22.79 27.38 21.77 27.38H9.17C8.15 27.38 7.21 27.13 6.35 26.63C5.51 26.13 4.84 25.45 4.34 24.59C3.84 23.73 3.59 22.79 3.59 21.77V9.2C3.59 8.18 3.84 7.24 4.34 6.38C4.84 5.52 5.51 4.84 6.35 4.34C7.21 3.84 8.15 3.59 9.17 3.59H21.77C22.79 3.59 23.73 3.84 24.59 4.34C25.45 4.84 26.13 5.52 26.63 6.38C27.13 7.24 27.38 8.18 27.38 9.2V21.77ZM23.3 5.54C22.74 5.54 22.26 5.74 21.86 6.14C21.46 6.54 21.26 7.02 21.26 7.58C21.26 8.14 21.46 8.62 21.86 9.02C22.26 9.4 22.74 9.59 23.3 9.59C23.86 9.59 24.33 9.4 24.71 9.02C25.11 8.62 25.31 8.14 25.31 7.58C25.31 7.02 25.11 6.54 24.71 6.14C24.33 5.74 23.86 5.54 23.3 5.54Z" fill="white"/>
</svg>
