<svg width="27" height="23" viewBox="0 0 27 23" fill="none" xmlns="http://www.w3.org/2000/svg">
<path d="M26.7435 3.34C25.8035 3.76 24.7635 4.05 23.6235 4.21C24.1835 3.89 24.6635 3.47 25.0635 2.95C25.4835 2.43 25.7935 1.85 25.9935 1.21C24.9735 1.85 23.8335 2.29 22.5735 2.53C22.0935 1.99 21.5035 1.57 20.8035 1.27C20.1235 0.969999 19.4035 0.819999 18.6435 0.819999C17.6635 0.819999 16.7635 1.07 15.9435 1.57C15.1235 2.05 14.4735 2.7 13.9935 3.52C13.5135 4.34 13.2735 5.24 13.2735 6.22C13.2735 6.7 13.3135 7.11 13.3935 7.45C11.1935 7.33 9.12352 6.77 7.18352 5.77C5.28352 4.79 3.65352 3.47 2.29352 1.81C1.81352 2.67 1.57352 3.57 1.57352 4.51C1.57352 5.43 1.78352 6.29 2.20352 7.09C2.64352 7.87 3.23352 8.51 3.97352 9.01C3.09352 8.99 2.28352 8.76 1.54352 8.32V8.41C1.54352 9.71 1.94352 10.85 2.74352 11.83C3.56352 12.81 4.60352 13.43 5.86352 13.69C5.42352 13.81 4.94352 13.87 4.42352 13.87C4.06352 13.87 3.73352 13.84 3.43352 13.78C3.77352 14.86 4.40352 15.75 5.32352 16.45C6.24352 17.13 7.28352 17.48 8.44352 17.5C7.52352 18.24 6.48352 18.81 5.32352 19.21C4.18352 19.61 2.99352 19.81 1.75352 19.81C1.49352 19.81 1.09352 19.79 0.553516 19.75H0.463516C2.96352 21.35 5.72352 22.15 8.74352 22.15C11.1235 22.15 13.3135 21.69 15.3135 20.77C17.1535 19.91 18.7535 18.71 20.1135 17.17C21.3735 15.73 22.3535 14.09 23.0535 12.25C23.7135 10.47 24.0435 8.67 24.0435 6.85V6.13C25.1035 5.37 26.0035 4.44 26.7435 3.34Z" fill="white"/>
</svg>
