<svg width="44" height="21" viewBox="0 0 44 21" fill="none" xmlns="http://www.w3.org/2000/svg">
<path d="M42.75 0.649997H18.3C17.9 0.649997 17.5333 0.799998 17.2 1.1C16.8667 1.36666 16.6667 1.68333 16.6 2.05L13.1 18.95C13.0333 19.35 13.1 19.6833 13.3 19.95C13.5333 20.2167 13.85 20.35 14.25 20.35H38.7C39.0667 20.35 39.4167 20.2167 39.75 19.95C40.0833 19.6833 40.2833 19.35 40.35 18.95L43.85 2.05C43.9167 1.68333 43.8333 1.36666 43.6 1.1C43.4 0.799998 43.1167 0.649997 42.75 0.649997ZM39.8 6.3L28.95 11.55C28.7167 11.65 28.4667 11.7 28.2 11.7C27.9667 11.7 27.7667 11.65 27.6 11.55L18.9 6.3C18.5667 6.13333 18.3833 5.85 18.35 5.45C18.3167 5.05 18.4333 4.68333 18.7 4.35C19.0667 3.81667 19.55 3.55 20.15 3.55C20.3167 3.55 20.5333 3.61667 20.8 3.75L28.9 8.6L38.95 3.75C39.2833 3.61667 39.5333 3.55 39.7 3.55C40.2667 3.55 40.6333 3.81667 40.8 4.35C40.9333 4.71667 40.9 5.1 40.7 5.5C40.5 5.86667 40.2 6.13333 39.8 6.3ZM3.95 4.35H14.5C14.7667 4.35 15 4.25 15.2 4.05C15.4 3.85 15.5 3.61667 15.5 3.35C15.5 3.08333 15.4 2.85 15.2 2.65C15 2.45 14.7667 2.35 14.5 2.35H3.95C3.68333 2.35 3.45 2.45 3.25 2.65C3.05 2.85 2.95 3.08333 2.95 3.35C2.95 3.61667 3.05 3.85 3.25 4.05C3.45 4.25 3.68333 4.35 3.95 4.35ZM11.65 11.5H1.15C0.883334 11.5 0.65 11.6 0.45 11.8C0.25 12 0.15 12.2333 0.15 12.5C0.15 12.7667 0.25 13.0167 0.45 13.25C0.65 13.45 0.883334 13.55 1.15 13.55H11.65C11.95 13.55 12.2 13.45 12.4 13.25C12.6 13.05 12.7 12.8 12.7 12.5C12.7 12.2 12.6 11.9667 12.4 11.8C12.2 11.6 11.95 11.5 11.65 11.5ZM14.1 7.85C14.1 7.58333 14 7.35 13.8 7.15C13.6 6.95 13.3667 6.85 13.1 6.85H6.8C6.53333 6.85 6.3 6.95 6.1 7.15C5.9 7.35 5.8 7.58333 5.8 7.85C5.8 8.11667 5.9 8.36667 6.1 8.6C6.3 8.8 6.53333 8.9 6.8 8.9H13.1C13.3667 8.9 13.6 8.8 13.8 8.6C14 8.4 14.1 8.15 14.1 7.85Z" fill="white"/>
</svg>
