<svg width="31" height="23" viewBox="0 0 31 23" fill="none" xmlns="http://www.w3.org/2000/svg">
<path d="M30.1035 9.37H30.0435V8.5C30.0435 8.32 30.0235 8.05 29.9835 7.69V7.63C29.9835 7.47 29.9635 7.23 29.9235 6.91L29.8635 6.19C29.8435 5.87 29.8235 5.64 29.8035 5.5C29.7235 5.14 29.5835 4.62 29.3835 3.94C29.2435 3.44 29.0235 3.02 28.7235 2.68C28.0635 1.9 27.1835 1.45 26.0835 1.33C25.7235 1.29 25.1935 1.25 24.4935 1.21L22.8435 1.12C21.8435 1.08 21.0735 1.06 20.5335 1.06C19.5335 1.02 18.7735 0.999999 18.2535 0.999999H16.7835C15.4435 0.979999 14.4435 0.979999 13.7835 0.999999C12.7835 0.999999 11.2835 1.02 9.28352 1.06L6.76352 1.15C5.88352 1.19 5.21352 1.23 4.75352 1.27C4.31352 1.31 3.88352 1.37 3.46352 1.45C2.48352 1.69 1.74352 2.22 1.24352 3.04C0.903516 3.58 0.663516 4.24 0.523516 5.02C0.443516 5.4 0.363516 5.97 0.283516 6.73C0.243516 7.09 0.203516 7.64 0.163516 8.38V8.47C0.123516 9.11 0.103516 9.59 0.103516 9.91C0.103516 11.71 0.113516 13.06 0.133516 13.96C0.133516 14.2 0.153516 14.54 0.193516 14.98C0.233516 15.62 0.273516 16.1 0.313516 16.42L0.343516 16.78C0.363516 17.1 0.383516 17.34 0.403516 17.5C0.483516 18.02 0.643516 18.61 0.883516 19.27C1.26352 20.31 2.00352 21.02 3.10352 21.4C3.56352 21.56 4.25352 21.68 5.17352 21.76H5.20352C5.46352 21.78 5.84352 21.8 6.34352 21.82L6.91352 21.85C7.55352 21.89 8.03352 21.91 8.35352 21.91L10.5735 21.97L16.2435 22.03L20.7735 21.94L22.6335 21.88C22.9135 21.88 23.1235 21.87 23.2635 21.85H23.3535C24.2135 21.81 24.8635 21.77 25.3035 21.73C25.8635 21.69 26.2835 21.64 26.5635 21.58C27.9435 21.26 28.8635 20.48 29.3235 19.24C29.6435 18.4 29.8335 17.5 29.8935 16.54C29.9335 16.22 29.9735 15.73 30.0135 15.07L30.1035 12.94V9.37ZM12.0135 15.4V6.97L20.1135 11.2L12.0135 15.4Z" fill="white"/>
</svg>
